<?xml version="1.0" encoding="UTF-8"?>
<svg version="1.1" xmlns="http://www.w3.org/2000/svg" width="512" height="512">
<path d="M0 0 C1.81336369 0.49302055 3.62707423 0.98476687 5.44110107 1.4753418 C9.3327809 2.53056219 13.22197687 3.59434466 17.10943604 4.66500854 C23.31389843 6.37372371 29.52343208 8.06345817 35.73388672 9.75024414 C43.32118385 11.8122242 50.90727266 13.87854077 58.49186134 15.95046139 C72.09806061 19.66673539 85.71372998 23.34677515 99.3359375 27.00390625 C100.32396677 27.26916674 101.31199604 27.53442722 102.32996559 27.80772591 C107.26383235 29.13211853 112.19787293 30.45586218 117.13198853 31.77932739 C122.95015845 33.34018029 128.7675444 34.90393988 134.5847168 36.46850586 C135.53211951 36.72330813 136.47952223 36.97811041 137.45563412 37.24063396 C139.35414956 37.75124102 141.25266431 38.26185063 143.15117836 38.77246284 C157.44230703 42.61581207 171.73517692 46.45259595 186.03038788 50.28073311 C190.8026602 51.55889954 195.57466145 52.83807775 200.34667206 54.11722088 C204.73623475 55.29367056 209.12630397 56.46820491 213.51678181 57.6412344 C215.5266541 58.17856646 217.53626633 58.71685797 219.54576111 59.25559998 C221.95787948 59.90226527 224.37042091 60.5473554 226.78346252 61.19056702 C227.82840378 61.47121506 228.87334503 61.7518631 229.94995117 62.04101562 C230.8552507 62.28315796 231.76055023 62.52530029 232.69328308 62.77478027 C234.8515625 63.41015625 234.8515625 63.41015625 236.8515625 64.41015625 C235.33432238 73.81246045 233.05943771 82.99965112 230.73828125 92.2265625 C230.32746962 93.86996736 229.91691772 95.51343716 229.50660706 97.15696716 C228.41390399 101.52931703 227.31644672 105.90045977 226.21772766 110.27130127 C225.53832238 112.97560222 224.86030121 115.68024643 224.18273926 118.38500977 C216.90400901 147.4380773 209.45617154 176.44021703 201.8515625 205.41015625 C185.3515625 205.41015625 168.8515625 205.41015625 151.8515625 205.41015625 C153.8515625 200.41015625 153.8515625 200.41015625 154.6640625 198.41015625 C154.94799598 195.38153251 153.51996255 193.90309605 151.8515625 191.41015625 C150.48114586 189.86838862 149.05887222 188.37177521 147.59887695 186.91455078 C146.74401199 186.05660919 145.88914703 185.1986676 145.00837708 184.31472778 C144.08651108 183.4000473 143.16464508 182.48536682 142.21484375 181.54296875 C141.25144005 180.58075936 140.28840815 179.61817758 139.32572937 178.65524292 C137.3088552 176.63992957 135.28867918 174.62800735 133.26586914 172.61865234 C130.69340179 170.0630938 128.12748447 167.50108387 125.56383991 164.93667793 C123.57450947 162.94762173 121.58256515 160.96120029 119.58977318 158.97561264 C118.18870431 157.57920826 116.78907303 156.18136196 115.38948059 154.78347778 C111.5005519 150.92304675 107.60612314 147.1444137 103.43432617 143.58959961 C100.53067801 141.09532288 98.34144975 138.62253251 96.2265625 135.40625 C80.82764441 114.8817236 58.33896732 112.09277379 34.43675232 107.10438538 C23.77646041 104.87453918 13.19569784 102.37413282 2.62109375 99.76953125 C1.80405598 99.56847527 0.9870182 99.36741928 0.14522171 99.16027069 C-3.15546486 98.34756648 -6.45589039 97.53381773 -9.75586128 96.71821213 C-18.32709173 94.60012492 -26.9070629 92.51859178 -35.48828125 90.44140625 C-36.93430108 90.0910258 -38.38031555 89.74062326 -39.82632446 89.39019775 C-52.26240194 86.37757904 -64.70379836 83.38721409 -77.1484375 80.41015625 C-76.57173591 75.54391558 -75.04794297 71.50773205 -72.97265625 67.1171875 C-72.65129196 66.42150665 -72.32992767 65.72582581 -71.99882507 65.00906372 C-70.95104548 62.74384116 -69.89355802 60.48329852 -68.8359375 58.22265625 C-67.37058589 55.06523996 -65.90991124 51.90566761 -64.44921875 48.74609375 C-64.08324585 47.95627609 -63.71727295 47.16645844 -63.34020996 46.35270691 C-61.05292977 41.40622457 -58.81444218 36.44145566 -56.62890625 31.44921875 C-56.10014893 30.24289795 -55.5713916 29.03657715 -55.02661133 27.79370117 C-54.0564312 25.56955102 -53.09106677 23.34329112 -52.1315918 21.11450195 C-47.40750527 10.31226935 -43.3435822 1.32147531 -32.3984375 -3.90234375 C-21.07678724 -6.29730823 -10.84506477 -3.01521494 0 0 Z " fill="#6E65FF" transform="translate(109.1484375,147.58984375)"/>
<path d="M0 0 C7.0928369 0.62173701 13.77141842 1.99999976 20.67578125 3.7121582 C22.37780449 4.12701981 22.37780449 4.12701981 24.11421204 4.55026245 C27.84829343 5.46180217 31.58037287 6.38127599 35.3125 7.30078125 C37.92663742 7.94111639 40.54120184 8.57969981 43.15576172 9.2183075 C49.33410367 10.72839001 55.51105375 12.24408488 61.68748856 13.76194686 C70.69927486 15.97631469 79.71323607 18.18179693 88.72706604 20.38782787 C90.07089373 20.71673205 91.41472003 21.04564188 92.75854492 21.3745575 C93.74511062 21.61602006 93.74511062 21.61602006 94.75160694 21.86236066 C99.22198501 22.95670996 103.69178802 24.05338633 108.16137695 25.1509552 C120.42711233 28.16124168 132.69694513 31.14565585 145 34 C146.61771492 40.73617874 148.23510646 47.47243508 149.85229492 54.20874023 C150.40007568 56.49033276 150.94792487 58.77190885 151.49584961 61.0534668 C151.75954346 62.15150635 152.0232373 63.2495459 152.29492188 64.38085938 C152.55822296 65.4772171 152.82152405 66.57357483 153.09280396 67.70315552 C153.88395523 71.00020204 154.67318711 74.29770444 155.46240234 77.59521484 C156.46850115 81.79591371 157.48497281 85.99388514 158.51025391 90.18994141 C158.74436478 91.15478958 158.97847565 92.11963776 159.21968079 93.11372375 C159.65726587 94.91684895 160.09828987 96.7191444 160.54338074 98.52043152 C160.73636246 99.31911148 160.92934418 100.11779144 161.12817383 100.94067383 C161.38211662 101.97772209 161.38211662 101.97772209 161.64118958 103.03572083 C162 105 162 105 162 109 C149.69999325 109.11582719 137.40011614 109.20468188 125.09967518 109.25906086 C119.38811295 109.28515956 113.67692372 109.32056339 107.96557617 109.37719727 C102.45423909 109.4315061 96.94326087 109.46141848 91.43167686 109.47438622 C89.32848142 109.48362803 87.22530571 109.50167521 85.12226295 109.52865028 C82.17718624 109.56492504 79.23359409 109.56994593 76.28833008 109.56762695 C75.4179863 109.58560333 74.54764252 109.60357971 73.65092468 109.62210083 C69.28194246 109.58485356 67.55956383 109.44682615 64.03562927 106.63287354 C61.9632077 103.95241301 60.12667707 101.28137736 58.390625 98.37109375 C57.72740234 97.26830078 57.06417969 96.16550781 56.38085938 95.02929688 C55.67051446 93.83206593 54.96022967 92.63479931 54.25 91.4375 C53.49882036 90.18378102 52.74685227 88.93053416 51.99414062 87.67773438 C50.43249166 85.07717294 48.87423945 82.47462212 47.31835938 79.87060547 C44.08916754 74.47183195 40.81886986 69.09814286 37.54876709 63.72409058 C35.78842834 60.83023218 34.03106441 57.93456846 32.2734375 55.0390625 C31.56608204 53.87402264 30.85872527 52.70898358 30.15136719 51.54394531 C28.32007678 48.52746867 26.48932442 45.51066583 24.6587677 42.4937439 C23.544685 40.65770354 22.43043362 38.82176563 21.31616211 36.98583984 C19.87360379 34.60896304 18.43179106 32.23163631 16.99047852 29.85400391 C13.84104769 24.6622104 10.68353154 19.47624451 7.48828125 14.3125 C6.96669434 13.46768066 6.44510742 12.62286133 5.90771484 11.75244141 C4.95748864 10.21585842 4.00363233 8.68151175 3.04541016 7.14990234 C0 2.22170012 0 2.22170012 0 0 Z " fill="#8172FF" transform="translate(32,244)"/>
<path d="M0 0 C2.2172104 3.3258156 2.99180657 6.05913022 4.05615234 9.91015625 C4.2519542 10.61281774 4.44775606 11.31547922 4.64949131 12.03943348 C5.30007919 14.37907247 5.94296846 16.72075684 6.5859375 19.0625 C7.04374801 20.71422102 7.50205526 22.36580442 7.96083069 24.01725769 C9.18592474 28.43236509 10.40448193 32.84925045 11.62147141 37.26659775 C12.87230946 41.80397505 14.12776768 46.34007312 15.38305664 50.8762207 C15.88271491 52.68189747 16.38236398 54.48757679 16.88200378 56.29325867 C17.12804037 57.18240149 17.37407696 58.0715443 17.6275692 58.98763084 C18.37021498 61.67260415 19.11203261 64.35780519 19.85371399 67.04304504 C22.58565186 76.92878383 25.34681827 86.80503384 28.16015625 96.66796875 C28.73459015 98.68943824 29.30897461 100.71092178 29.88330078 102.73242188 C30.65092424 105.43287393 31.4215007 108.1322638 32.20257568 110.82885742 C32.89218242 113.21041626 33.57039685 115.59493379 34.24609375 117.98046875 C34.44388931 118.64958786 34.64168488 119.31870697 34.84547424 120.00810242 C35.77109301 123.31878306 36.3677709 125.76712974 35 129 C33.3984375 130.859375 33.3984375 130.859375 31.375 132.75 C28.70713779 135.25968856 26.24828027 137.84567782 23.86962891 140.62597656 C19.99466899 145.07165434 15.87985926 149.23033907 11.6875 153.375 C10.5286731 154.52814697 10.5286731 154.52814697 9.34643555 155.70458984 C6.07623964 158.9585983 2.8000651 162.20656266 -0.47558594 165.45507812 C-2.88165285 167.84295352 -5.28463038 170.23390793 -7.6875 172.625 C-8.41686768 173.34606934 -9.14623535 174.06713867 -9.89770508 174.81005859 C-13.85885044 178.7524481 -17.6094142 182.79822164 -21.25759888 187.03051758 C-24.25750618 190.42139274 -27.47085335 193.59348862 -30.68359375 196.78125 C-31.38396255 197.48020386 -32.08433136 198.17915771 -32.80592346 198.89929199 C-35.01408458 201.10191539 -37.22572037 203.30101081 -39.4375 205.5 C-40.94749814 207.00497508 -42.4572659 208.51018135 -43.96679688 210.015625 C-47.64187641 213.67975829 -51.32007356 217.3407348 -55 221 C-56.22257991 217.46194953 -55.76632059 215.13304099 -54.82617188 211.54833984 C-54.53905334 210.43413162 -54.25193481 209.3199234 -53.95611572 208.17195129 C-53.46736969 206.33499947 -53.46736969 206.33499947 -52.96875 204.4609375 C-52.62621973 203.14534389 -52.28459053 201.82951539 -51.94378662 200.51347351 C-51.20052159 197.65038094 -50.45141785 194.78890214 -49.69787598 191.92849731 C-48.47995538 187.30437109 -47.27532272 182.6768498 -46.07324219 178.04858398 C-45.65279356 176.43027673 -45.23232206 174.81197542 -44.81182861 173.19367981 C-44.59950844 172.37652811 -44.38718826 171.55937641 -44.16843414 170.71746254 C-43.50621932 168.17086093 -42.84272273 165.62459628 -42.17889404 163.07841492 C-37.2993726 144.3559039 -32.51306135 125.60971925 -27.7300415 106.86236572 C-26.25493937 101.0808795 -24.77776169 95.29992478 -23.30029297 89.51904297 C-19.18457455 73.41323846 -15.07302159 57.30641004 -10.98648071 41.19317436 C-10.47173128 39.16365082 -9.95673115 37.13419106 -9.44165039 35.10475159 C-7.92327301 29.12144904 -6.40701575 23.13762956 -4.89550781 17.15258789 C-4.38094514 15.12253685 -3.86630264 13.09250605 -3.3515625 11.0625 C-3.00960342 9.70245094 -3.00960342 9.70245094 -2.66073608 8.31492615 C-1.11353901 2.22707802 -1.11353901 2.22707802 0 0 Z " fill="#464AFF" transform="translate(383,129)"/>
<path d="M0 0 C3.97730072 1.51078999 7.71491246 3.32541766 11.49609375 5.2734375 C12.11757797 5.59325089 12.73906219 5.91306427 13.37937927 6.24256897 C15.40019406 7.28394745 17.41898343 8.3291746 19.4375 9.375 C20.12918274 9.73248322 20.82086548 10.08996643 21.5335083 10.45828247 C32.12243623 15.93316829 42.62831163 21.54279433 53.06640625 27.30078125 C56.38780557 29.12968208 59.72710505 30.91623158 63.08984375 32.66796875 C63.8885791 33.0844165 64.68731445 33.50086426 65.51025391 33.92993164 C67.00082325 34.70366833 68.49384702 35.47270243 69.98974609 36.23608398 C74.89072813 38.78145626 74.89072813 38.78145626 76 41 C76.46427191 47.38373875 76.46427191 47.38373875 74.78515625 49.61254883 C72.6462587 51.27493323 70.77368203 51.95402153 68.1875 52.76171875 C67.20668457 53.07238281 66.22586914 53.38304687 65.21533203 53.703125 C64.15427246 54.02796875 63.09321289 54.3528125 62 54.6875 C60.90671387 55.02910156 59.81342773 55.37070313 58.68701172 55.72265625 C55.12857715 56.82826767 51.56519712 57.91640391 48 59 C46.13263184 59.56968506 46.13263184 59.56968506 44.22753906 60.15087891 C40.52906402 61.27531845 36.82794278 62.39036816 33.125 63.5 C31.96097656 63.85022217 30.79695313 64.20044434 29.59765625 64.5612793 C28.51613281 64.88136963 27.43460937 65.20145996 26.3203125 65.53125 C25.36398926 65.81548828 24.40766602 66.09972656 23.42236328 66.39257812 C21 67 21 67 18 67 C15.65007243 58.56043119 13.30290128 50.12010215 10.95927429 41.67878151 C9.87102209 37.75943208 8.78181168 33.84035417 7.69042969 29.921875 C6.6378008 26.14239921 5.58766513 22.36223893 4.53927612 18.58158493 C4.13826767 17.13720257 3.7363518 15.69307184 3.33352661 14.2491951 C2.7707491 12.23139869 2.21116496 10.21274273 1.65234375 8.19384766 C1.33257568 7.04357086 1.01280762 5.89329407 0.68334961 4.7081604 C0 2 0 2 0 0 Z " fill="#3740FF" transform="translate(404,129)"/>
<path d="M0 0 C3.55480003 1.50841813 5.79559622 3.57633661 8.484375 6.32421875 C9.76441406 7.62069336 9.76441406 7.62069336 11.0703125 8.94335938 C11.95460937 9.84892578 12.83890625 10.75449219 13.75 11.6875 C19.01476058 17.05771202 24.26728235 22.31932948 29.98144531 27.21069336 C33.99646691 30.76972738 37.7275959 34.62516002 41.5 38.4375 C42.32242188 39.26443359 43.14484375 40.09136719 43.9921875 40.94335938 C45.99712113 42.95994959 47.99966253 44.97885236 50 47 C46.33830762 52.65195262 42.51898502 58.04312111 38.25 63.25 C33.76737355 68.77326134 29.38022914 74.35319295 25.12207031 80.05175781 C22.21537378 83.89231311 22.21537378 83.89231311 20 85 C8.37801961 37.80314117 8.37801961 37.80314117 3.25 16.0625 C3.07992432 15.34467346 2.90984863 14.62684692 2.73461914 13.88726807 C2.26324991 11.89549636 1.79557523 9.90285135 1.328125 7.91015625 C1.0693457 6.80808838 0.81056641 5.70602051 0.54394531 4.57055664 C0 2 0 2 0 0 Z " fill="#6A62FF" transform="translate(197,298)"/>
</svg>
